<?xml version="1.0" encoding="UTF-8"?>
<svg version="1.1" xmlns="http://www.w3.org/2000/svg" width="148" height="34">
<path d="M0 0 C48.84 0 97.68 0 148 0 C148 11.22 148 22.44 148 34 C99.16 34 50.32 34 0 34 C0 22.78 0 11.56 0 0 Z " fill="#FDF6F9" transform="translate(0,0)"/>
<path d="M0 0 C0.98484375 0.00902344 1.9696875 0.01804688 2.984375 0.02734375 C4.10585938 0.04474609 4.10585938 0.04474609 5.25 0.0625 C5.25 1.0525 5.25 2.0425 5.25 3.0625 C5.971875 3.26875 6.69375 3.475 7.4375 3.6875 C11.07880197 5.46769207 13.49393337 7.42082085 15.25 11.0625 C16.15051433 16.3569032 16.12325222 20.57797123 13.375 25.25 C11.25 27.0625 11.25 27.0625 9.25 27.0625 C9.25 27.7225 9.25 28.3825 9.25 29.0625 C0.47915156 31.58969362 0.47915156 31.58969362 -3.75 30.0625 C-5.625 28.875 -5.625 28.875 -7.75 27.0625 C-8.60851562 26.39154297 -8.60851562 26.39154297 -9.484375 25.70703125 C-15.86947167 20.57520769 -15.86947167 20.57520769 -16.75 16.0625 C-16.46116627 11.9466194 -15.88373778 8.61872963 -13.75 5.0625 C-13.09 5.0625 -12.43 5.0625 -11.75 5.0625 C-11.5025 4.423125 -11.255 3.78375 -11 3.125 C-9.75 1.0625 -9.75 1.0625 -8.03125 0.4375 C-5.3188631 -0.00837182 -2.74794841 -0.03271367 0 0 Z " fill="#FCF6F3" transform="translate(16.75,1.9375)"/>
<path d="M0 0 C3.99420536 0.99855134 4.76091681 1.3931645 7.453125 4.16015625 C8.071875 4.78857422 8.690625 5.41699219 9.328125 6.06445312 C9.96234375 6.72380859 10.5965625 7.38316406 11.25 8.0625 C11.8996875 8.72572266 12.549375 9.38894531 13.21875 10.07226562 C14.8194676 11.70829317 16.41276193 13.35090912 18 15 C18.05386629 12.87527424 18.09273071 10.75016348 18.125 8.625 C18.14820312 7.44164062 18.17140625 6.25828125 18.1953125 5.0390625 C18.32866229 1.88846183 18.32866229 1.88846183 16 0 C18.97 0 21.94 0 25 0 C24.34 0.66 23.68 1.32 23 2 C22.62948007 4.3245339 22.62948007 4.3245339 22.5859375 7.0078125 C22.54726563 7.99394531 22.50859375 8.98007813 22.46875 9.99609375 C22.42234375 11.54490234 22.42234375 11.54490234 22.375 13.125 C22.33632813 14.16527344 22.29765625 15.20554687 22.2578125 16.27734375 C22.16335234 18.85138311 22.07778786 21.42541155 22 24 C15.30592108 20.77963351 10.1309819 15.29132508 5 10 C4.67 13.96 4.34 17.92 4 22 C4.99 22 5.98 22 7 22 C7 22.66 7 23.32 7 24 C3.7 24 0.4 24 -3 24 C-2.67 23.34 -2.34 22.68 -2 22 C-1.34 22 -0.68 22 0 22 C0 14.74 0 7.48 0 0 Z " fill="#BE365A" transform="translate(38,5)"/>
<path d="M0 0 C0.98484375 0.00902344 1.9696875 0.01804688 2.984375 0.02734375 C4.10585938 0.04474609 4.10585938 0.04474609 5.25 0.0625 C5.25 1.0525 5.25 2.0425 5.25 3.0625 C5.971875 3.26875 6.69375 3.475 7.4375 3.6875 C11.07880197 5.46769207 13.49393337 7.42082085 15.25 11.0625 C16.15051433 16.3569032 16.12325222 20.57797123 13.375 25.25 C11.25 27.0625 11.25 27.0625 9.25 27.0625 C9.25 27.7225 9.25 28.3825 9.25 29.0625 C0.82142857 31.49107143 0.82142857 31.49107143 -3.75 30.0625 C-3.75 29.7325 -3.75 29.4025 -3.75 29.0625 C-2.5125 28.77375 -1.275 28.485 0 28.1875 C4.37881755 27.18632958 4.37881755 27.18632958 8.25 25.0625 C10.50016612 20.33715115 10.65666774 16.18651353 10.25 11.0625 C8.86666369 7.25832516 6.90657212 5.61216707 3.5 3.625 C0.19059315 2.11683858 -0.815435 2.07094323 -4.625 2.5625 C-7.78737679 3.76147365 -7.78737679 3.76147365 -9.125 6.0625 C-9.33125 6.7225 -9.5375 7.3825 -9.75 8.0625 C-10.08 8.7225 -10.41 9.3825 -10.75 10.0625 C-11.3149385 15.59237881 -11.10444428 19.45013912 -7.75 24.0625 C-7.75 24.7225 -7.75 25.3825 -7.75 26.0625 C-11.59018663 24.55385525 -13.55643252 22.54195186 -15.75 19.0625 C-17.08929998 14.67357777 -17.0693564 11.84006341 -15.3125 7.5625 C-14.796875 6.7375 -14.28125 5.9125 -13.75 5.0625 C-13.09 5.0625 -12.43 5.0625 -11.75 5.0625 C-11.5025 4.423125 -11.255 3.78375 -11 3.125 C-9.75 1.0625 -9.75 1.0625 -8.03125 0.4375 C-5.3188631 -0.00837182 -2.74794841 -0.03271367 0 0 Z " fill="#A98965" transform="translate(16.75,1.9375)"/>
<path d="M0 0 C2.24893954 -0.10823773 4.49937575 -0.18569645 6.75 -0.25 C8.00296875 -0.29640625 9.2559375 -0.3428125 10.546875 -0.390625 C14 0 14 0 16.45703125 1.82421875 C18 4 18 4 17.9375 7.0625 C16.54711802 11.41903019 16.54711802 11.41903019 14 13 C10.8125 13.1875 10.8125 13.1875 8 13 C8 15.97 8 18.94 8 22 C8.99 22 9.98 22 11 22 C11 22.66 11 23.32 11 24 C7.37 24 3.74 24 0 24 C0 23.34 0 22.68 0 22 C0.99 22 1.98 22 3 22 C2.89040282 18.70762945 2.75971069 15.41643113 2.625 12.125 C2.5940625 11.18785156 2.563125 10.25070312 2.53125 9.28515625 C2.49257812 8.38925781 2.45390625 7.49335938 2.4140625 6.5703125 C2.3826416 5.74289551 2.3512207 4.91547852 2.31884766 4.06298828 C2.17400863 1.78013915 2.17400863 1.78013915 0 0 Z " fill="#BA294D" transform="translate(66,5)"/>
<path d="M0 0 C5.28 0 10.56 0 16 0 C16 1.65 16 3.3 16 5 C15.34 5 14.68 5 14 5 C13.67 4.34 13.34 3.68 13 3 C10.47266765 2.34444881 10.47266765 2.34444881 8 2 C8 4.64 8 7.28 8 10 C10.31 10 12.62 10 15 10 C15 11.65 15 13.3 15 15 C14.34 14.34 13.68 13.68 13 13 C10.42938689 12.35232207 10.42938689 12.35232207 8 12 C8 14.97 8 17.94 8 21 C10.31 21 12.62 21 15 21 C15 20.34 15 19.68 15 19 C15.66 19 16.32 19 17 19 C16.67 20.65 16.34 22.3 16 24 C11.05 24 6.1 24 1 24 C1 23.34 1 22.68 1 22 C1.66 22 2.32 22 3 22 C2.89040282 18.70762945 2.75971069 15.41643113 2.625 12.125 C2.5940625 11.18785156 2.563125 10.25070312 2.53125 9.28515625 C2.49257812 8.38925781 2.45390625 7.49335938 2.4140625 6.5703125 C2.3826416 5.74289551 2.3512207 4.91547852 2.31884766 4.06298828 C2.17400863 1.78013915 2.17400863 1.78013915 0 0 Z " fill="#B12E4F" transform="translate(109,5)"/>
<path d="M0 0 C6.93 0 13.86 0 21 0 C21 1.65 21 3.3 21 5 C20.67 4.34 20.34 3.68 20 3 C17.69 3 15.38 3 13 3 C13 9.27 13 15.54 13 22 C13.99 22 14.98 22 16 22 C16 22.66 16 23.32 16 24 C12.37 24 8.74 24 5 24 C5 23.34 5 22.68 5 22 C5.99 22 6.98 22 8 22 C8 15.73 8 9.46 8 3 C1.68516016 3.52565835 1.68516016 3.52565835 -1 5 C-0.67 3.35 -0.34 1.7 0 0 Z " fill="#BB234A" transform="translate(86,5)"/>
<path d="M0 0 C0.33 0 0.66 0 1 0 C1 6.27 1 12.54 1 19 C0.01 18.67 -0.98 18.34 -2 18 C-2 18.66 -2 19.32 -2 20 C-3.98 20 -5.96 20 -8 20 C-9.40783127 17.18433745 -9.2076814 14.7636293 -9.25 11.625 C-9.27578125 10.48289062 -9.3015625 9.34078125 -9.328125 8.1640625 C-8.97408877 4.75014168 -8.4444878 3.36918368 -6 1 C-3.375 0.8125 -3.375 0.8125 -1 1 C-0.67 0.67 -0.34 0.34 0 0 Z " fill="#FEFDFD" transform="translate(147,5)"/>
<path d="M0 0 C0.66 0.33 1.32 0.66 2 1 C2.625 3.0625 2.625 3.0625 3 5 C3.66 4.34 4.32 3.68 5 3 C5.99 3 6.98 3 8 3 C7.34 4.32 6.68 5.64 6 7 C7.32 7.66 8.64 8.32 10 9 C10 9.66 10 10.32 10 11 C8.35 11 6.7 11 5 11 C5.495 11.61875 5.99 12.2375 6.5 12.875 C8 15 8 15 8 17 C6.88625 16.4740625 6.88625 16.4740625 5.75 15.9375 C2.81485998 14.93688408 1.84250726 15.01982508 -1 16 C-1.66 16 -2.32 16 -3 16 C-4.33783393 16.31478446 -5.67203709 16.64587656 -7 17 C-6.67 15.35 -6.34 13.7 -6 12 C-6.99 11.67 -7.98 11.34 -9 11 C-8.67 10.01 -8.34 9.02 -8 8 C-7.01 7.67 -6.02 7.34 -5 7 C-5.66 5.68 -6.32 4.36 -7 3 C-3.125 3.875 -3.125 3.875 -2 5 C-1.34 3.35 -0.68 1.7 0 0 Z " fill="#B38986" transform="translate(16,7)"/>
<path d="M0 0 C3.63 0 7.26 0 11 0 C10.67 0.66 10.34 1.32 10 2 C9.34 2 8.68 2 8 2 C8 8.27 8 14.54 8 21 C10.64 21 13.28 21 16 21 C16.33 20.34 16.66 19.68 17 19 C17 20.65 17 22.3 17 24 C11.72 24 6.44 24 1 24 C1 23.34 1 22.68 1 22 C1.66 22 2.32 22 3 22 C2.89040282 18.70762945 2.75971069 15.41643113 2.625 12.125 C2.5940625 11.18785156 2.563125 10.25070312 2.53125 9.28515625 C2.49257812 8.38925781 2.45390625 7.49335938 2.4140625 6.5703125 C2.3826416 5.74289551 2.3512207 4.91547852 2.31884766 4.06298828 C2.17400863 1.78013915 2.17400863 1.78013915 0 0 Z " fill="#B53555" transform="translate(129,5)"/>
<path d="M0 0 C0.33 0 0.66 0 1 0 C1.28788265 5.56573129 1.24860472 9.23537975 -2 14 C-4.61709072 16.37364042 -6.47307345 17.96019186 -10.09765625 18.0546875 C-12.92151663 17.73693915 -15.44666791 17.27666604 -18 16 C-18 14.35 -18 12.7 -18 11 C-17.05125 10.54625 -16.1025 10.0925 -15.125 9.625 C-11.99686321 8.19761746 -11.99686321 8.19761746 -10 6 C-9.5875 6.45375 -9.175 6.9075 -8.75 7.375 C-6.93591905 9.05950374 -5.24714373 9.99265971 -3 11 C-3.7425 10.071875 -3.7425 10.071875 -4.5 9.125 C-6 7 -6 7 -6 5 C-4.35 5 -2.7 5 -1 5 C-0.67 3.35 -0.34 1.7 0 0 Z " fill="#F6EBEA" transform="translate(27,13)"/>
<path d="M0 0 C2.97 0 5.94 0 9 0 C8.34 0.66 7.68 1.32 7 2 C6.62948007 4.3245339 6.62948007 4.3245339 6.5859375 7.0078125 C6.52792969 8.48701172 6.52792969 8.48701172 6.46875 9.99609375 C6.42234375 11.54490234 6.42234375 11.54490234 6.375 13.125 C6.31699219 14.68541016 6.31699219 14.68541016 6.2578125 16.27734375 C6.16335234 18.85138311 6.07778786 21.42541155 6 24 C-0.20606234 21.0074013 -6.08251362 16.38200147 -9 10 C-9 9.34 -9 8.68 -9 8 C-5.00129139 9.92530414 -1.15703281 11.84296719 2 15 C2.05386629 12.87527424 2.09273071 10.75016348 2.125 8.625 C2.14820313 7.44164062 2.17140625 6.25828125 2.1953125 5.0390625 C2.32866229 1.88846183 2.32866229 1.88846183 0 0 Z " fill="#C01F48" transform="translate(54,5)"/>
<path d="M0 0 C4.45217009 1.3603853 6.73458525 2.88869175 9 7 C9.78690081 12.28574785 9.86709945 16.52593093 7.125 21.1875 C5 23 5 23 3 23 C3 23.66 3 24.32 3 25 C-5.42857143 27.42857143 -5.42857143 27.42857143 -10 26 C-10 25.67 -10 25.34 -10 25 C-8.7625 24.71125 -7.525 24.4225 -6.25 24.125 C-1.87118245 23.12382958 -1.87118245 23.12382958 2 21 C4.11884313 16.55042942 4.80383594 11.86975029 4 7 C2.88279842 4.43043636 1.5648883 2.34733245 0 0 Z " fill="#933950" transform="translate(23,6)"/>
<path d="M0 0 C2.77109307 -0.05392397 5.54113818 -0.09363455 8.3125 -0.125 C9.09818359 -0.14175781 9.88386719 -0.15851562 10.69335938 -0.17578125 C11.45068359 -0.18222656 12.20800781 -0.18867187 12.98828125 -0.1953125 C13.68477783 -0.20578613 14.38127441 -0.21625977 15.09887695 -0.22705078 C17 -0 17 -0 20 2 C19.10796875 2.09796875 18.2159375 2.1959375 17.296875 2.296875 C16.12640625 2.44640625 14.9559375 2.5959375 13.75 2.75 C12.00976562 2.95882813 12.00976562 2.95882813 10.234375 3.171875 C6.60346788 4.10152755 5.2975051 5.09560676 3 8 C1.74563813 10.63222962 1.74563813 10.63222962 1 13 C0.67 13 0.34 13 0 13 C0 8.71 0 4.42 0 0 Z " fill="#F9F3E9" transform="translate(0,0)"/>
<path d="M0 0 C13.53 0 27.06 0 41 0 C41 0.33 41 0.66 41 1 C40.02417969 1.06058594 39.04835937 1.12117187 38.04296875 1.18359375 C36.13451172 1.30927734 36.13451172 1.30927734 34.1875 1.4375 C32.92292969 1.51871094 31.65835938 1.59992187 30.35546875 1.68359375 C27.00818107 1.87184547 27.00818107 1.87184547 24 3 C23.67 3.99 23.34 4.98 23 6 C23 4.35 23 2.7 23 1 C16.07 1 9.14 1 2 1 C1.67 4.3 1.34 7.6 1 11 C0.34 11 -0.32 11 -1 11 C-0.979375 10.071875 -0.95875 9.14375 -0.9375 8.1875 C-0.84230396 4.97713989 -0.84230396 4.97713989 -2 2 C-1.34 2 -0.68 2 0 2 C0 1.34 0 0.68 0 0 Z " fill="#FDDCEA" transform="translate(84,4)"/>
<path d="M0 0 C1.65 0.33 3.3 0.66 5 1 C4.67 2.65 4.34 4.3 4 6 C3.21625 5.938125 2.4325 5.87625 1.625 5.8125 C0.325625 5.9053125 0.325625 5.9053125 -1 6 C-3.45391569 9.68087353 -3.22802759 12.44355588 -3.125 16.6875 C-3.11597656 17.38939453 -3.10695312 18.09128906 -3.09765625 18.81445312 C-3.07413704 20.54311525 -3.03826713 22.27160145 -3 24 C-1.02 24 0.96 24 3 24 C3 24.33 3 24.66 3 25 C0.36 25 -2.28 25 -5 25 C-5.08687496 21.87517438 -5.14034568 18.75065754 -5.1875 15.625 C-5.21263672 14.73554688 -5.23777344 13.84609375 -5.26367188 12.9296875 C-5.27333984 12.07890625 -5.28300781 11.228125 -5.29296875 10.3515625 C-5.3086792 9.56604004 -5.32438965 8.78051758 -5.34057617 7.97119141 C-5.22818604 7.32069824 -5.1157959 6.67020508 -5 6 C-4.01 5.34 -3.02 4.68 -2 4 C-0.80767387 1.94996045 -0.80767387 1.94996045 0 0 Z " fill="#FDDEED" transform="translate(142,1)"/>
<path d="M0 0 C7.48291572 6.15034169 7.48291572 6.15034169 10 10 C8 9 6 8 4 7 C4.99 8.32 5.98 9.64 7 11 C6.67 11.66 6.34 12.32 6 13 C4.68 11.68 3.36 10.36 2 9 C1.67 12.96 1.34 16.92 1 21 C0.67 21 0.34 21 0 21 C-0.19645093 17.87549468 -0.38063489 14.75038555 -0.5625 11.625 C-0.61857422 10.73554688 -0.67464844 9.84609375 -0.73242188 8.9296875 C-0.78076172 8.07890625 -0.82910156 7.228125 -0.87890625 6.3515625 C-0.9260376 5.56604004 -0.97316895 4.78051758 -1.02172852 3.97119141 C-1 2 -1 2 0 0 Z " fill="#CB375D" transform="translate(41,6)"/>
<path d="M0 0 C0.99 0 1.98 0 3 0 C3.94870788 6.85988773 3.94870788 13.14011227 3 20 C2.01 20 1.02 20 0 20 C0 13.4 0 6.8 0 0 Z " fill="#C20B39" transform="translate(113,7)"/>
<path d="M0 0 C1.27875 -0.061875 2.5575 -0.12375 3.875 -0.1875 C4.95394531 -0.23970703 4.95394531 -0.23970703 6.0546875 -0.29296875 C6.69664063 -0.19628906 7.33859375 -0.09960938 8 0 C10 3 10 3 9.8125 6 C8.98389778 9.05945433 8.64244001 10.30128857 6 12 C3.3125 12.1875 3.3125 12.1875 1 12 C1.495 11.62875 1.99 11.2575 2.5 10.875 C4.25790052 9.0014421 4.25790052 9.0014421 4.4375 6 C4.30269167 2.89345966 4.30269167 2.89345966 2 1.125 C1.34 0.75375 0.68 0.3825 0 0 Z " fill="#B92248" transform="translate(74,6)"/>
<path d="M0 0 C0.33 0.66 0.66 1.32 1 2 C1.66 2.33 2.32 2.66 3 3 C2.6875 4.9375 2.6875 4.9375 2 7 C1.01 7.33 0.02 7.66 -1 8 C-1 8.66 -1 9.32 -1 10 C-9.42857143 12.42857143 -9.42857143 12.42857143 -14 11 C-14 10.67 -14 10.34 -14 10 C-12.7625 9.71125 -11.525 9.4225 -10.25 9.125 C-5.87118245 8.12382958 -5.87118245 8.12382958 -2 6 C-0.70768358 2.95800528 -0.70768358 2.95800528 0 0 Z " fill="#9D4B60" transform="translate(27,21)"/>
<path d="M0 0 C6.93 0 13.86 0 21 0 C21 1.65 21 3.3 21 5 C20.67 4.34 20.34 3.68 20 3 C17.69 3 15.38 3 13 3 C13 2.34 13 1.68 13 1 C11.35 1.33 9.7 1.66 8 2 C8 2.33 8 2.66 8 3 C6.329375 3.2165625 6.329375 3.2165625 4.625 3.4375 C1.17857953 3.78372035 1.17857953 3.78372035 -1 5 C-0.67 3.35 -0.34 1.7 0 0 Z " fill="#B33A58" transform="translate(86,5)"/>
<path d="M0 0 C0.98484375 0.00902344 1.9696875 0.01804688 2.984375 0.02734375 C4.10585938 0.04474609 4.10585938 0.04474609 5.25 0.0625 C5.25 1.0525 5.25 2.0425 5.25 3.0625 C5.91 3.3925 6.57 3.7225 7.25 4.0625 C6.26 4.5575 6.26 4.5575 5.25 5.0625 C4.363125 4.546875 3.47625 4.03125 2.5625 3.5 C-0.74677701 1.70880788 -0.74677701 1.70880788 -4.5625 2.6875 C-6.1403125 3.368125 -6.1403125 3.368125 -7.75 4.0625 C-8.08 5.0525 -8.41 6.0425 -8.75 7.0625 C-10.07 6.7325 -11.39 6.4025 -12.75 6.0625 C-11.76 6.0625 -10.77 6.0625 -9.75 6.0625 C-9.75 4.4125 -9.75 2.7625 -9.75 1.0625 C-6.43929162 0.06140485 -3.44915231 -0.04106134 0 0 Z " fill="#A3886D" transform="translate(16.75,1.9375)"/>
<path d="M0 0 C0.66 0.33 1.32 0.66 2 1 C1.67 3.31 1.34 5.62 1 8 C-1 8.66666667 -3 9.33333333 -5 10 C-5.66 9.67 -6.32 9.34 -7 9 C-7 9.66 -7 10.32 -7 11 C-7.66 11 -8.32 11 -9 11 C-8.67 10.01 -8.34 9.02 -8 8 C-7.01 7.67 -6.02 7.34 -5 7 C-5.66 5.68 -6.32 4.36 -7 3 C-3.125 3.875 -3.125 3.875 -2 5 C-1.34 3.35 -0.68 1.7 0 0 Z " fill="#CDB3AD" transform="translate(16,7)"/>
<path d="M0 0 C0.33 0 0.66 0 1 0 C1 6.27 1 12.54 1 19 C0.01 19 -0.98 19 -2 19 C-2.19818283 12.29481414 -2.30844801 6.34823202 0 0 Z " fill="#C20B39" transform="translate(135,8)"/>
<path d="M0 0 C4 1 4 1 5 2 C5.1875 4.9375 5.1875 4.9375 5 8 C4.34 8.66 3.68 9.32 3 10 C2.01 10 1.02 10 0 10 C0 6.7 0 3.4 0 0 Z " fill="#FEDCEC" transform="translate(74,7)"/>
<path d="M0 0 C1.60080151 4.00200378 0.29279692 7.04556236 -1 11 C-2.32 10.67 -3.64 10.34 -5 10 C-5.33 11.32 -5.66 12.64 -6 14 C-5.53199289 9.94393835 -5.12046792 6.53411321 -3 3 C-2.34 3 -1.68 3 -1 3 C-0.67 2.01 -0.34 1.02 0 0 Z " fill="#B79366" transform="translate(6,4)"/>
<path d="M0 0 C2.97 0 5.94 0 9 0 C8.34 0.66 7.68 1.32 7 2 C6.65591718 4.50004478 6.55800997 6.97204261 6.44140625 9.4921875 C5.93211718 12.38567056 4.91047047 13.8093272 3 16 C2.95101562 15.01257812 2.90203125 14.02515625 2.8515625 13.0078125 C2.77679688 11.72648437 2.70203125 10.44515625 2.625 9.125 C2.55539063 7.84882813 2.48578125 6.57265625 2.4140625 5.2578125 C2.32758894 1.91938301 2.32758894 1.91938301 0 0 Z " fill="#A92849" transform="translate(54,5)"/>
<path d="M0 0 C3.63 0 7.26 0 11 0 C9.515 1.485 9.515 1.485 8 3 C7.34 3 6.68 3 6 3 C6 4.98 6 6.96 6 9 C5.01 9.495 5.01 9.495 4 10 C4 7.36 4 4.72 4 2 C2.68 1.34 1.36 0.68 0 0 Z " fill="#B7244B" transform="translate(129,5)"/>
<path d="M0 0 C0.66 0 1.32 0 2 0 C1.67 1.65 1.34 3.3 1 5 C-3.95 5 -8.9 5 -14 5 C-14 4.34 -14 3.68 -14 3 C-11.36 3 -8.72 3 -6 3 C-6 2.67 -6 2.34 -6 2 C-4.02 2 -2.04 2 0 2 C0 1.34 0 0.68 0 0 Z " fill="#B94665" transform="translate(124,24)"/>
<path d="M0 0 C2.6875 0.3125 2.6875 0.3125 5 1 C5 1.66 5 2.32 5 3 C3.35 3 1.7 3 0 3 C0.495 3.61875 0.99 4.2375 1.5 4.875 C3 7 3 7 3 9 C0.37812506 7.95125002 -0.79371361 7.35068687 -2.25 4.875 C-2.4975 4.25625 -2.745 3.6375 -3 3 C-1.8125 1.4375 -1.8125 1.4375 0 0 Z " fill="#CBAFA9" transform="translate(21,15)"/>
<path d="M0 0 C2.66666667 1.33333333 5.33333333 2.66666667 8 4 C8 5.32 8 6.64 8 8 C7.01 8.33 6.02 8.66 5 9 C4.16094435 7.87926138 3.32892169 6.75325453 2.5 5.625 C2.0359375 4.99851562 1.571875 4.37203125 1.09375 3.7265625 C0 2 0 2 0 0 Z " fill="#C31643" transform="translate(45,13)"/>
<path d="M0 0 C1.67542976 0.28604898 3.34385343 0.61781233 5 1 C4.67 2.65 4.34 4.3 4 6 C2.68 5.67 1.36 5.34 0 5 C-0.5625 3.0625 -0.5625 3.0625 -1 1 C-0.67 0.67 -0.34 0.34 0 0 Z " fill="#B0AEAF" transform="translate(142,1)"/>
<path d="M0 0 C3.84685385 1.24762828 6.02929405 2.3870391 8 6 C7.67 6.99 7.34 7.98 7 9 C4.04070881 6.24479785 1.96318174 3.53372712 0 0 Z " fill="#8C384C" transform="translate(23,6)"/>
<path d="M0 0 C1.98 0 3.96 0 6 0 C4.68 0.33 3.36 0.66 2 1 C1.67 4.3 1.34 7.6 1 11 C0.34 11 -0.32 11 -1 11 C-0.979375 10.071875 -0.95875 9.14375 -0.9375 8.1875 C-0.84230396 4.97713989 -0.84230396 4.97713989 -2 2 C-1.34 2 -0.68 2 0 2 C0 1.34 0 0.68 0 0 Z " fill="#FBD4E2" transform="translate(84,4)"/>
<path d="M0 0 C1.65 0 3.3 0 5 0 C4.25 2.4375 4.25 2.4375 3 5 C0.875 5.8125 0.875 5.8125 -1 6 C-0.67 4.02 -0.34 2.04 0 0 Z " fill="#D1B7B2" transform="translate(10,18)"/>
<path d="M0 0 C1.32 0.33 2.64 0.66 4 1 C4 2.65 4 4.3 4 6 C2.68 6 1.36 6 0 6 C0 4.02 0 2.04 0 0 Z " fill="#FEF6FA" transform="translate(75,9)"/>
<path d="M0 0 C0.33 0.99 0.66 1.98 1 3 C-4.625 4.125 -4.625 4.125 -8 3 C-8 2.67 -8 2.34 -8 2 C-5.36 1.34 -2.72 0.68 0 0 Z " fill="#8E5C6A" transform="translate(21,29)"/>
<path d="M0 0 C1 3 1 3 0 6 C-0.99 6 -1.98 6 -3 6 C-3 4.35 -3 2.7 -3 1 C-2.01 0.67 -1.02 0.34 0 0 Z " fill="#A5415B" transform="translate(31,13)"/>
<path d="M0 0 C0.99 0.33 1.98 0.66 3 1 C0.03 3.475 0.03 3.475 -3 6 C-3.66 5.67 -4.32 5.34 -5 5 C-3.35 3.35 -1.7 1.7 0 0 Z " fill="#F2ECE4" transform="translate(11,5)"/>
</svg>
